<?xml version="1.0" standalone="no"?>
<!DOCTYPE svg PUBLIC "-//W3C//DTD SVG 20010904//EN"
 "http://www.w3.org/TR/2001/REC-SVG-20010904/DTD/svg10.dtd">
<svg version="1.0" xmlns="http://www.w3.org/2000/svg"
 width="512.000000pt" height="512.000000pt" viewBox="0 0 512.000000 512.000000"
 preserveAspectRatio="xMidYMid meet">
<metadata>
Created by potrace 1.14, written by Peter Selinger 2001-2017
</metadata>
<g transform="translate(0.000000,512.000000) scale(0.100000,-0.100000)"
fill="#000000" stroke="none">
<path d="M1966 5095 c-15 -14 -34 -42 -43 -62 -22 -53 -424 -1093 -462 -1198
-11 -27 -82 -212 -159 -410 -77 -198 -161 -416 -187 -485 -26 -69 -53 -138
-60 -155 -7 -16 -45 -115 -85 -220 -40 -104 -78 -203 -85 -220 -7 -16 -50
-127 -95 -245 -45 -118 -96 -253 -115 -300 -34 -87 -160 -414 -221 -575 -55
-143 -96 -248 -105 -270 -5 -11 -18 -45 -29 -75 -11 -30 -24 -64 -29 -75 -5
-11 -22 -56 -39 -100 -17 -44 -73 -192 -126 -328 -53 -137 -96 -260 -96 -275
0 -16 13 -43 29 -62 l29 -35 517 0 517 0 27 32 c14 18 41 74 59 125 18 51 37
102 42 113 5 11 72 193 150 405 78 212 148 399 155 415 7 17 18 47 25 68 8 27
17 37 33 38 12 0 438 1 946 2 608 1 925 -1 927 -8 2 -5 35 -102 75 -215 61
-176 141 -408 280 -810 37 -108 53 -134 91 -151 20 -8 177 -11 559 -11 l530 0
30 28 c56 53 56 54 -116 511 -87 230 -164 436 -172 458 -7 22 -18 49 -23 60
-5 11 -48 124 -95 250 -208 556 -483 1287 -557 1480 -44 116 -93 244 -108 285
-40 110 -236 631 -248 660 -6 14 -27 70 -47 125 -19 55 -40 109 -45 120 -5 11
-43 112 -85 225 -184 491 -308 817 -322 847 -30 64 -20 63 -661 63 l-579 0
-27 -25z m634 -1117 c17 -57 37 -121 45 -143 7 -22 30 -94 50 -160 20 -66 47
-154 60 -195 14 -41 47 -147 74 -235 27 -88 102 -329 166 -535 65 -206 128
-409 140 -450 13 -41 34 -110 48 -152 l25 -78 -665 0 c-365 0 -662 3 -660 8 3
4 156 465 341 1025 186 559 339 1017 341 1017 2 0 18 -46 35 -102z"/>
</g>
</svg>
